{
	"accessors": [
		{
			"bufferView": 0,
			"byteOffset": 0,
			"componentType": 5126,
			"count": 1,
			"max": [
				0.0
			],
			"min": [
				0.0
			],
			"type": "SCALAR"
		},
		{
			"bufferView": 1,
			"byteOffset": 0,
			"componentType": 5123,
			"count": 18396,
			"type": "SCALAR"
		},
		{
			"bufferView": 2,
			"byteOffset": 0,
			"componentType": 5126,
			"count": 5605,
			"max": [
				0.594050645828247,
				1.80298662185669,
				0.193549871444702
			],
			"min": [
				-0.594171226024628,
				-0.000305790221318603,
				-0.149101406335831
			],
			"type": "VEC3"
		},
		{
			"bufferView": 3,
			"byteOffset": 0,
			"componentType": 5126,
			"count": 5605,
			"type": "VEC3"
		},
		{
			"bufferView": 4,
			"byteOffset": 0,
			"componentType": 5126,
			"count": 5605,
			"type": "VEC2"
		},
		{
			"bufferView": 5,
			"byteOffset": 0,
			"componentType": 5123,
			"count": 5605,
			"type": "VEC4"
		},
		{
			"bufferView": 6,
			"byteOffset": 0,
			"componentType": 5126,
			"count": 5605,
			"type": "VEC4"
		},
		{
			"bufferView": 7,
			"byteOffset": 0,
			"componentType": 5126,
			"count": 51,
			"type": "MAT4"
		}
	],
	"animations": [
		{
			"channels": [],
			"name": "Take 001",
			"samplers": []
		}
	],
	"asset": {
		"generator": "FBX2glTF v0.13.1",
		"version": "2.0"
	},
	"bufferViews": [
		{
			"buffer": 0,
			"byteLength": 4,
			"byteOffset": 0
		},
		{
			"buffer": 0,
			"byteLength": 36792,
			"byteOffset": 4,
			"target": 34963
		},
		{
			"buffer": 0,
			"byteLength": 67260,
			"byteOffset": 36796,
			"target": 34962
		},
		{
			"buffer": 0,
			"byteLength": 67260,
			"byteOffset": 104056,
			"target": 34962
		},
		{
			"buffer": 0,
			"byteLength": 44840,
			"byteOffset": 171316,
			"target": 34962
		},
		{
			"buffer": 0,
			"byteLength": 44840,
			"byteOffset": 216156,
			"target": 34962
		},
		{
			"buffer": 0,
			"byteLength": 89680,
			"byteOffset": 260996,
			"target": 34962
		},
		{
			"buffer": 0,
			"byteLength": 3264,
			"byteOffset": 350676
		}
	],
	"buffers": [
		{
			"byteLength": 353940,
			"uri": "buffer.bin"
		}
	],
	"images": [
		{
			"name": "KyleRobot_BaseMap",
			"uri": "KyleRobot_BaseMap.png"
		},
		{
			"name": "KyleRobot_Metallic",
			"uri": "KyleRobot_Metallic.png"
		},
		{
			"name": "KyleRobot_Normal",
			"uri": "KyleRobot_Normal.png"
		}
	],
	"materials": [
		{
			"alphaMode": "OPAQUE",
			"doubleSided": false,
			"extras": {
				"fromFBX": {
					"isTruePBR": false,
					"shadingModel": "Phong"
				}
			},
			"name": "Robot",
			"normalTexture": {
				"index": 2
			},
			"pbrMetallicRoughness": {
				"baseColorFactor": [
					0.800000011920929,
					0.800000011920929,
					0.800000011920929,
					1.0
				],
				"baseColorTexture": {
					"index": 0
				},
				"metallicFactor": 0.400000005960464,
				"metallicRoughnessTexture": {
					"index": 1
				},
				"roughnessFactor": 0.437730967998505
			}
		}
	],
	"meshes": [
		{
			"name": "RobotKile",
			"primitives": [
				{
					"attributes": {
						"JOINTS_0": 5,
						"NORMAL": 3,
						"POSITION": 2,
						"TEXCOORD_0": 4,
						"WEIGHTS_0": 6
					},
					"indices": 1,
					"material": 0,
					"mode": 4
				}
			]
		}
	],
	"nodes": [
		{
			"children": [
				1,
				2
			],
			"name": "RootNode",
			"rotation": [
				0.0,
				0.0,
				0.0,
				1.0
			],
			"scale": [
				1.0,
				1.0,
				1.0
			],
			"translation": [
				0.0,
				0.0,
				0.0
			]
		},
		{
			"mesh": 0,
			"name": "RobotKile",
			"rotation": [
				0.0,
				0.0,
				0.0,
				1.0
			],
			"scale": [
				1.0,
				1.0,
				1.0
			],
			"skin": 0,
			"translation": [
				0.0,
				0.0,
				0.0
			]
		},
		{
			"children": [
				3
			],
			"name": "ROOT",
			"rotation": [
				0.0,
				0.0,
				0.0,
				1.0
			],
			"scale": [
				1.0,
				1.0,
				1.0
			],
			"translation": [
				0.0,
				0.0,
				0.0
			]
		},
		{
			"children": [
				4,
				46,
				50
			],
			"name": "Hips",
			"rotation": [
				0.0,
				0.0,
				0.70710676908493,
				0.70710676908493
			],
			"scale": [
				1.0,
				1.0,
				1.0
			],
			"translation": [
				-0.00115254439879209,
				0.923279464244843,
				0.0311445649713278
			]
		},
		{
			"children": [
				5
			],
			"name": "Spine1",
			"rotation": [
				0.0,
				0.0,
				2.05231103223014e-08,
				1.0
			],
			"scale": [
				1.0,
				1.0,
				1.0
			],
			"translation": [
				0.109600529074669,
				6.92501579846206e-17,
				0.0
			]
		},
		{
			"children": [
				6,
				8,
				27
			],
			"name": "Spine2",
			"rotation": [
				1.31228286317213e-33,
				0.0436193868517876,
				-1.239498989667e-32,
				0.999048233032227
			],
			"scale": [
				1.0,
				1.0,
				1.0
			],
			"translation": [
				0.0994299948215485,
				2.20656814232849e-17,
				0.0
			]
		},
		{
			"children": [
				7
			],
			"name": "Neck",
			"rotation": [
				-2.49339479129441e-34,
				-0.104528464376926,
				1.23676390818623e-32,
				0.994521915912628
			],
			"scale": [
				1.0,
				1.0,
				1.0
			],
			"translation": [
				0.394838869571686,
				4.49868764462735e-09,
				0.0
			]
		},
		{
			"name": "Head",
			"rotation": [
				-5.28996665706817e-33,
				0.0523359552025795,
				1.26201029423243e-32,
				0.998629510402679
			],
			"scale": [
				1.0,
				1.0,
				1.0
			],
			"translation": [
				0.0812478810548782,
				1.38777874976217e-19,
				0.0
			]
		},
		{
			"children": [
				9
			],
			"name": "LeftShoulder",
			"rotation": [
				0.0308435652405024,
				-0.0308435652405024,
				-0.706433773040771,
				0.706433773040771
			],
			"scale": [
				1.0,
				1.0,
				1.0
			],
			"translation": [
				0.264896005392075,
				-0.136549338698387,
				-0.0458112992346287
			]
		},
		{
			"children": [
				10
			],
			"name": "LeftUpperArm",
			"rotation": [
				-1.13804796808639e-33,
				-2.01149289248664e-33,
				-0.492423564195633,
				0.870355725288391
			],
			"scale": [
				1.0,
				1.0,
				1.0
			],
			"translation": [
				0.10669769346714,
				0.0,
				-4.44089199923895e-18
			]
		},
		{
			"children": [
				11
			],
			"name": "LeftArm",
			"rotation": [
				-8.9546799103446e-19,
				-0.199367940425873,
				-4.40136600084872e-18,
				0.97992467880249
			],
			"scale": [
				1.0,
				1.0,
				1.0
			],
			"translation": [
				0.22498893737793,
				0.0,
				-4.44089199923895e-18
			]
		},
		{
			"children": [
				12,
				15,
				18,
				21,
				24
			],
			"name": "LeftHand",
			"rotation": [
				-3.82644941893507e-18,
				-5.55111512312578e-17,
				-5.55111512312578e-17,
				1.0
			],
			"scale": [
				1.0,
				1.0,
				1.0
			],
			"translation": [
				0.288681477308273,
				-4.26325631926939e-16,
				3.55271346704226e-16
			]
		},
		{
			"children": [
				13
			],
			"name": "LeftThumb1",
			"rotation": [
				-0.0966777577996254,
				-0.354880332946777,
				-0.100112751126289,
				0.924494862556458
			],
			"scale": [
				1.0,
				1.0,
				1.0
			],
			"translation": [
				0.0178744494915009,
				-0.0020459801889956,
				0.0239227451384068
			]
		},
		{
			"children": [
				14
			],
			"name": "LeftThumb2",
			"rotation": [
				9.79201354453126e-18,
				0.173648178577423,
				-1.994588551983e-17,
				0.984807729721069
			],
			"scale": [
				1.0,
				1.0,
				1.0
			],
			"translation": [
				0.0556562319397926,
				0.0,
				0.0
			]
		},
		{
			"name": "LeftThumb3",
			"rotation": [
				1.75410481403729e-17,
				0.0727749168872833,
				7.02671318800015e-18,
				0.997348368167877
			],
			"scale": [
				1.0,
				1.0,
				1.0
			],
			"translation": [
				0.0292461775243282,
				-2.84217087951293e-16,
				4.26325631926939e-16
			]
		},
		{
			"children": [
				16
			],
			"name": "LeftIndex1",
			"rotation": [
				0.00340961897745728,
				-2.73895748250652e-05,
				9.33885573317639e-08,
				0.999994158744812
			],
			"scale": [
				1.0,
				1.0,
				1.0
			],
			"translation": [
				0.0965346693992615,
				0.00840388983488083,
				0.0304187294095755
			]
		},
		{
			"children": [
				17
			],
			"name": "LeftIndex2",
			"rotation": [
				-2.77555756156289e-17,
				2.77555756156289e-17,
				2.38524477946811e-17,
				1.0
			],
			"scale": [
				1.0,
				1.0,
				1.0
			],
			"translation": [
				0.0313651151955128,
				0.0,
				7.10542719878232e-17
			]
		},
		{
			"name": "LeftIndex3",
			"rotation": [
				-1.73472347597681e-17,
				-5.55111512312578e-17,
				1.77809156287623e-17,
				1.0
			],
			"scale": [
				1.0,
				1.0,
				1.0
			],
			"translation": [
				0.0235814098268747,
				-2.84217087951293e-16,
				3.55271359939116e-17
			]
		},
		{
			"children": [
				19
			],
			"name": "LeftMiddle1",
			"rotation": [
				0.00340961897745728,
				-2.73895748250652e-05,
				9.33885573317639e-08,
				0.999994158744812
			],
			"scale": [
				1.0,
				1.0,
				1.0
			],
			"translation": [
				0.0955175757408142,
				0.00852573104202747,
				0.0101579381152987
			]
		},
		{
			"children": [
				20
			],
			"name": "LeftMiddle2",
			"rotation": [
				2.16840434497101e-17,
				5.55111512312578e-17,
				-2.81892564846231e-18,
				1.0
			],
			"scale": [
				1.0,
				1.0,
				1.0
			],
			"translation": [
				0.038860660046339,
				1.42108543975646e-16,
				0.0
			]
		},
		{
			"name": "LeftMiddle3",
			"rotation": [
				-1.30104260698261e-18,
				-5.55111512312578e-17,
				-8.02309607639273e-18,
				1.0
			],
			"scale": [
				1.0,
				1.0,
				1.0
			],
			"translation": [
				0.025193078443408,
				-4.26325631926939e-16,
				1.06581407981735e-16
			]
		},
		{
			"children": [
				22
			],
			"name": "LeftRing1",
			"rotation": [
				-5.87654129371201e-18,
				-2.73897330771433e-05,
				5.42302256567725e-18,
				1.0
			],
			"scale": [
				1.0,
				1.0,
				1.0
			],
			"translation": [
				0.0965981930494308,
				0.00868139881640673,
				-0.0101207150146365
			]
		},
		{
			"children": [
				23
			],
			"name": "LeftRing2",
			"rotation": [
				1.70890204053923e-17,
				-3.81638705085101e-34,
				-2.23323925769128e-17,
				1.0
			],
			"scale": [
				1.0,
				1.0,
				1.0
			],
			"translation": [
				0.0313651151955128,
				0.0,
				0.0
			]
		},
		{
			"name": "LeftRing3",
			"rotation": [
				5.38844352094039e-18,
				2.77555756156289e-17,
				-4.46647851538257e-17,
				1.0
			],
			"scale": [
				1.0,
				1.0,
				1.0
			],
			"translation": [
				0.0235814098268747,
				-4.26325631926939e-16,
				3.55271359939116e-17
			]
		},
		{
			"children": [
				25
			],
			"name": "LeftPinky1",
			"rotation": [
				-5.87654129371201e-18,
				-2.73897330771433e-05,
				5.42302256567725e-18,
				1.0
			],
			"scale": [
				1.0,
				1.0,
				1.0
			],
			"translation": [
				0.0941320806741714,
				0.00876758620142937,
				-0.028567461296916
			]
		},
		{
			"children": [
				26
			],
			"name": "LeftPinky2",
			"rotation": [
				5.6751856802819e-18,
				2.77555756156289e-17,
				6.09343326156127e-17,
				1.0
			],
			"scale": [
				1.0,
				1.0,
				1.0
			],
			"translation": [
				0.0233607292175293,
				1.42108543975646e-16,
				-7.10542719878232e-17
			]
		},
		{
			"name": "LeftPinky3",
			"rotation": [
				-2.13331120748345e-17,
				7.07806153179134e-34,
				-3.31787603087062e-17,
				1.0
			],
			"scale": [
				1.0,
				1.0,
				1.0
			],
			"translation": [
				0.0177774727344513,
				-2.84217087951293e-16,
				1.06581407981735e-16
			]
		},
		{
			"children": [
				28
			],
			"name": "RightShoulder",
			"rotation": [
				0.706433773040771,
				-0.706433773040771,
				0.0308435652405024,
				-0.0308435652405024
			],
			"scale": [
				1.0,
				1.0,
				1.0
			],
			"translation": [
				0.264900684356689,
				0.136549457907677,
				-0.0458108708262444
			]
		},
		{
			"children": [
				29
			],
			"name": "RightUpperArm",
			"rotation": [
				-5.42015743186753e-32,
				-1.95925756022175e-31,
				-0.492423564195633,
				0.870355725288391
			],
			"scale": [
				1.0,
				1.0,
				1.0
			],
			"translation": [
				-0.106697998940945,
				0.0,
				4.44089199923895e-18
			]
		},
		{
			"children": [
				30
			],
			"name": "RightArm",
			"rotation": [
				-1.02012810049266e-17,
				-0.199367940425873,
				-5.0140899479939e-17,
				0.97992467880249
			],
			"scale": [
				1.0,
				1.0,
				1.0
			],
			"translation": [
				-0.224994346499443,
				4.2678238969529e-06,
				2.39808156378375e-16
			]
		},
		{
			"children": [
				31,
				34,
				37,
				40,
				43
			],
			"name": "RightHand",
			"rotation": [
				1.88682772175974e-18,
				1.629892654995e-35,
				8.63826947076781e-18,
				1.0
			],
			"scale": [
				1.0,
				1.0,
				1.0
			],
			"translation": [
				-0.288679838180542,
				-1.69076326983486e-06,
				-6.52588767025009e-07
			]
		},
		{
			"children": [
				32
			],
			"name": "RightThumb1",
			"rotation": [
				-0.0966777577996254,
				-0.354880332946777,
				-0.100112751126289,
				0.924494862556458
			],
			"scale": [
				1.0,
				1.0,
				1.0
			],
			"translation": [
				-0.0178742986172438,
				0.00204618624411523,
				-0.0239224769175053
			]
		},
		{
			"children": [
				33
			],
			"name": "RightThumb2",
			"rotation": [
				1.03766355508128e-08,
				0.173648178577423,
				-1.829680851273e-09,
				0.984807729721069
			],
			"scale": [
				1.0,
				1.0,
				1.0
			],
			"translation": [
				-0.0556566044688225,
				-1.87725717637477e-07,
				3.10203915887541e-08
			]
		},
		{
			"name": "RightThumb3",
			"rotation": [
				1.47491450164239e-08,
				0.0727749168872833,
				-1.07622155631759e-09,
				0.997348368167877
			],
			"scale": [
				1.0,
				1.0,
				1.0
			],
			"translation": [
				-0.0292463134974241,
				5.3422263590619e-07,
				3.77478556856659e-07
			]
		},
		{
			"children": [
				35
			],
			"name": "RightIndex1",
			"rotation": [
				0.00340961897745728,
				-2.73895730060758e-05,
				9.33885573317639e-08,
				0.999994158744812
			],
			"scale": [
				1.0,
				1.0,
				1.0
			],
			"translation": [
				-0.0965347141027451,
				-0.00840430334210396,
				-0.0304188262671232
			]
		},
		{
			"children": [
				36
			],
			"name": "RightIndex2",
			"rotation": [
				5.20417042793042e-18,
				-2.77555756156289e-17,
				9.75781955236954e-18,
				1.0
			],
			"scale": [
				1.0,
				1.0,
				1.0
			],
			"translation": [
				-0.031365342438221,
				9.41641530971538e-07,
				-9.39752009543326e-09
			]
		},
		{
			"name": "RightIndex3",
			"rotation": [
				-1.43114686768087e-17,
				2.77555756156289e-17,
				3.68628738645072e-18,
				1.0
			],
			"scale": [
				1.0,
				1.0,
				1.0
			],
			"translation": [
				-0.02358159981668,
				-3.30108548496355e-07,
				2.78504813877589e-07
			]
		},
		{
			"children": [
				38
			],
			"name": "RightMiddle1",
			"rotation": [
				0.00340961897745728,
				-2.73895748250652e-05,
				9.33885573317639e-08,
				0.999994158744812
			],
			"scale": [
				1.0,
				1.0,
				1.0
			],
			"translation": [
				-0.0955175757408142,
				-0.00852542463690042,
				-0.0101575870066881
			]
		},
		{
			"children": [
				39
			],
			"name": "RightMiddle2",
			"rotation": [
				-2.42861286636753e-17,
				2.77555756156289e-17,
				-1.7130394325271e-17,
				1.0
			],
			"scale": [
				1.0,
				1.0,
				1.0
			],
			"translation": [
				-0.0388602428138256,
				-1.1759252238619e-08,
				-1.4561261707513e-07
			]
		},
		{
			"name": "RightMiddle3",
			"rotation": [
				-2.94902990916057e-17,
				-5.55111512312578e-17,
				1.53956708492942e-17,
				1.0
			],
			"scale": [
				1.0,
				1.0,
				1.0
			],
			"translation": [
				-0.0251936092972755,
				-7.79141373641323e-08,
				2.16183195789199e-07
			]
		},
		{
			"children": [
				41
			],
			"name": "RightRing1",
			"rotation": [
				-6.51369701286568e-18,
				-2.73897330771433e-05,
				-1.3711096025134e-17,
				1.0
			],
			"scale": [
				1.0,
				1.0,
				1.0
			],
			"translation": [
				-0.0965983271598816,
				-0.00868150591850281,
				0.010120720602572
			]
		},
		{
			"children": [
				42
			],
			"name": "RightRing2",
			"rotation": [
				1.29047839081409e-08,
				-2.77555756156289e-17,
				-2.86455003591859e-18,
				1.0
			],
			"scale": [
				1.0,
				1.0,
				1.0
			],
			"translation": [
				-0.031365342438221,
				9.41683708788332e-07,
				-2.97606095323033e-09
			]
		},
		{
			"name": "RightRing3",
			"rotation": [
				1.49011611938477e-08,
				3.56653678796508e-25,
				2.39346232254546e-17,
				1.0
			],
			"scale": [
				1.0,
				1.0,
				1.0
			],
			"translation": [
				-0.0235808100551367,
				-8.47038165829872e-07,
				-5.8717876783021e-08
			]
		},
		{
			"children": [
				44
			],
			"name": "RightPinky1",
			"rotation": [
				-6.5121766548998e-18,
				-2.73897330771433e-05,
				4.18000568604851e-17,
				1.0
			],
			"scale": [
				1.0,
				1.0,
				1.0
			],
			"translation": [
				-0.0941322296857834,
				-0.00876773428171873,
				0.0285674687474966
			]
		},
		{
			"children": [
				45
			],
			"name": "RightPinky2",
			"rotation": [
				1.46277163685999e-17,
				-1.21230626507411e-34,
				-8.28773348822499e-18,
				1.0
			],
			"scale": [
				1.0,
				1.0,
				1.0
			],
			"translation": [
				-0.0233608856797218,
				5.39414664046944e-08,
				1.12858096201762e-07
			]
		},
		{
			"name": "RightPinky3",
			"rotation": [
				-1.2121006320033e-18,
				-2.77555756156289e-17,
				-2.8645504495089e-18,
				1.0
			],
			"scale": [
				1.0,
				1.0,
				1.0
			],
			"translation": [
				-0.0177777577191591,
				2.33066430155304e-07,
				2.39374202237741e-07
			]
		},
		{
			"children": [
				47
			],
			"name": "LeftLeg",
			"rotation": [
				-0.0754832103848457,
				4.62201353411509e-18,
				0.997147083282471,
				6.10576487013321e-17
			],
			"scale": [
				1.0,
				1.0,
				1.0
			],
			"translation": [
				-0.0405067019164562,
				-0.112361699342728,
				0.0194769538938999
			]
		},
		{
			"children": [
				48
			],
			"name": "LeftCalf",
			"rotation": [
				-3.39491985151522e-25,
				0.0,
				-3.24646239212845e-24,
				1.0
			],
			"scale": [
				1.0,
				1.0,
				1.0
			],
			"translation": [
				0.351905137300491,
				-1.77635679969558e-17,
				-1.06581407981735e-16
			]
		},
		{
			"children": [
				49
			],
			"name": "LeftFoot",
			"rotation": [
				-1.6978751870685e-24,
				-0.5735764503479,
				-2.07496351875385e-24,
				0.819152057170868
			],
			"scale": [
				1.0,
				1.0,
				1.0
			],
			"translation": [
				0.43927600979805,
				-1.42108543975646e-16,
				0.0
			]
		},
		{
			"name": "LeftToes",
			"rotation": [
				-3.96317679066731e-25,
				-0.087155744433403,
				-1.21950056641923e-25,
				0.99619472026825
			],
			"scale": [
				1.0,
				1.0,
				1.0
			],
			"translation": [
				0.132129460573196,
				1.77635679969558e-17,
				-1.77635679969558e-17
			]
		},
		{
			"children": [
				51
			],
			"name": "RightLeg",
			"rotation": [
				0.997147083282471,
				3.9899237691543e-08,
				0.0754832103848457,
				1.05066515487806e-08
			],
			"scale": [
				1.0,
				1.0,
				1.0
			],
			"translation": [
				-0.0405064672231674,
				0.112361446022987,
				0.0194769334048033
			]
		},
		{
			"children": [
				52
			],
			"name": "RightCalf",
			"rotation": [
				1.49011611938477e-08,
				-1.23259516440783e-32,
				-8.27180612553028e-25,
				1.0
			],
			"scale": [
				1.0,
				1.0,
				1.0
			],
			"translation": [
				-0.351905077695847,
				-1.42797746960355e-08,
				-1.84603123898341e-08
			]
		},
		{
			"children": [
				53
			],
			"name": "RightFoot",
			"rotation": [
				3.96637340296668e-25,
				-0.5735764503479,
				1.28752956430277e-24,
				0.819152057170868
			],
			"scale": [
				1.0,
				1.0,
				1.0
			],
			"translation": [
				-0.439276725053787,
				-1.78251831073339e-08,
				-1.09640367895736e-07
			]
		},
		{
			"name": "RightToes",
			"rotation": [
				9.61469666626249e-24,
				-0.087155744433403,
				3.12461276734052e-24,
				0.99619472026825
			],
			"scale": [
				1.0,
				1.0,
				1.0
			],
			"translation": [
				-0.132129281759262,
				-2.91315438438744e-09,
				-4.0892967945183e-07
			]
		}
	],
	"samplers": [
		{}
	],
	"scene": 0,
	"scenes": [
		{
			"name": "Root Scene",
			"nodes": [
				0
			]
		}
	],
	"skins": [
		{
			"inverseBindMatrices": 7,
			"joints": [
				3,
				4,
				5,
				6,
				7,
				8,
				9,
				10,
				11,
				12,
				13,
				14,
				15,
				16,
				17,
				18,
				19,
				20,
				21,
				22,
				23,
				24,
				25,
				26,
				27,
				28,
				29,
				30,
				31,
				32,
				33,
				34,
				35,
				36,
				37,
				38,
				39,
				40,
				41,
				42,
				43,
				44,
				45,
				46,
				47,
				48,
				49,
				50,
				51,
				52,
				53
			],
			"skeleton": 3
		},
		{
			"joints": [
				3,
				4,
				5,
				6,
				7,
				8,
				9,
				10,
				11,
				12,
				13,
				14,
				15,
				16,
				17,
				18,
				19,
				20,
				21,
				22,
				23,
				24,
				25,
				26,
				27,
				28,
				29,
				30,
				31,
				32,
				33,
				34,
				35,
				36,
				37,
				38,
				39,
				40,
				41,
				42,
				43,
				44,
				45,
				46,
				47,
				48,
				49,
				50,
				51,
				52,
				53
			]
		}
	],
	"textures": [
		{
			"name": "KyleRobot_BaseMap",
			"source": 0
		},
		{
			"name": "KyleRobot_Metallic",
			"source": 1
		},
		{
			"name": "KyleRobot_Normal",
			"source": 2
		}
	]
}