{
	"accessors": [
		{
			"bufferView": 0,
			"componentType": 5123,
			"count": 66828,
			"max": [
				17831
			],
			"min": [
				0
			],
			"type": "SCALAR"
		},
		{
			"bufferView": 16,
			"byteOffset": 0,
			"componentType": 5126,
			"count": 17832,
			"max": [
				0.30707216262817383,
				0.1871660351753235,
				0.21665902435779572
			],
			"min": [
				0.012056991457939148,
				-0.0898483544588089,
				-0.15035699307918549
			],
			"type": "VEC3"
		},
		{
			"bufferView": 1,
			"componentType": 5126,
			"count": 17832,
			"max": [
				0.9990000128746033,
				0.9990000128746033
			],
			"min": [
				0.0010000000474974513,
				0.0028717517852783203
			],
			"type": "VEC2"
		},
		{
			"bufferView": 15,
			"byteOffset": 0,
			"componentType": 5126,
			"count": 17832,
			"max": [
				0.9999796748161316,
				0.9998399615287781,
				0.9998045563697815
			],
			"min": [
				-0.9999915957450867,
				-0.9999975562095642,
				-0.9983748197555542
			],
			"type": "VEC3"
		},
		{
			"bufferView": 2,
			"componentType": 5123,
			"count": 117600,
			"max": [
				28917
			],
			"min": [
				0
			],
			"type": "SCALAR"
		},
		{
			"bufferView": 14,
			"byteOffset": 0,
			"componentType": 5126,
			"count": 28918,
			"max": [
				0.29452693462371826,
				0.22012004256248474,
				0.18026016652584076
			],
			"min": [
				0.01953934133052826,
				-0.06893864274024963,
				-0.128510519862175
			],
			"type": "VEC3"
		},
		{
			"bufferView": 3,
			"componentType": 5126,
			"count": 28918,
			"max": [
				0.9990215301513672,
				0.9989702701568604
			],
			"min": [
				0.0009784846333786845,
				0.0010297289118170738
			],
			"type": "VEC2"
		},
		{
			"bufferView": 13,
			"byteOffset": 0,
			"componentType": 5126,
			"count": 28918,
			"max": [
				0.9999472498893738,
				0.9998881816864014,
				0.999869704246521
			],
			"min": [
				-0.9998433589935303,
				-0.9999512434005737,
				-0.999993085861206
			],
			"type": "VEC3"
		},
		{
			"bufferView": 4,
			"componentType": 5123,
			"count": 2865,
			"max": [
				1604
			],
			"min": [
				0
			],
			"type": "SCALAR"
		},
		{
			"bufferView": 20,
			"byteOffset": 0,
			"componentType": 5126,
			"count": 1605,
			"max": [
				0.229696586728096,
				-0.015490710735321045,
				0.2059149295091629
			],
			"min": [
				0.08457343280315399,
				-0.07948385179042816,
				0.1520603895187378
			],
			"type": "VEC3"
		},
		{
			"bufferView": 19,
			"byteOffset": 0,
			"componentType": 5126,
			"count": 1605,
			"max": [
				1.0,
				0.7660443782806396,
				0.7660443782806396
			],
			"min": [
				-1.0,
				-0.7660443782806396,
				-0.642787754535675
			],
			"type": "VEC3"
		},
		{
			"bufferView": 5,
			"componentType": 5123,
			"count": 66828,
			"max": [
				11239
			],
			"min": [
				0
			],
			"type": "SCALAR"
		},
		{
			"bufferView": 10,
			"byteOffset": 0,
			"componentType": 5126,
			"count": 11240,
			"max": [
				-0.012927845120429993,
				0.1871660351753235,
				0.21665902435779572
			],
			"min": [
				-0.3079429864883423,
				-0.0898483544588089,
				-0.15035699307918549
			],
			"type": "VEC3"
		},
		{
			"bufferView": 9,
			"byteOffset": 0,
			"componentType": 5126,
			"count": 11240,
			"max": [
				0.9999796748161316,
				0.9998399615287781,
				0.9998045563697815
			],
			"min": [
				-0.9999915957450867,
				-0.9999975562095642,
				-0.9983748197555542
			],
			"type": "VEC3"
		},
		{
			"bufferView": 6,
			"componentType": 5123,
			"count": 117600,
			"max": [
				28917
			],
			"min": [
				0
			],
			"type": "SCALAR"
		},
		{
			"bufferView": 12,
			"byteOffset": 0,
			"componentType": 5126,
			"count": 28918,
			"max": [
				-0.02547307312488556,
				0.22012004256248474,
				0.18026016652584076
			],
			"min": [
				-0.3004606366157532,
				-0.06893864274024963,
				-0.128510519862175
			],
			"type": "VEC3"
		},
		{
			"bufferView": 7,
			"componentType": 5126,
			"count": 28918,
			"max": [
				0.9990215301513672,
				0.9989702701568604
			],
			"min": [
				0.0009784846333786845,
				0.0010297289118170738
			],
			"type": "VEC2"
		},
		{
			"bufferView": 11,
			"byteOffset": 0,
			"componentType": 5126,
			"count": 28918,
			"max": [
				0.9999472498893738,
				0.9998881816864014,
				0.999869704246521
			],
			"min": [
				-0.9998433589935303,
				-0.9999512434005737,
				-0.999993085861206
			],
			"type": "VEC3"
		},
		{
			"bufferView": 8,
			"componentType": 5123,
			"count": 2865,
			"max": [
				1604
			],
			"min": [
				0
			],
			"type": "SCALAR"
		},
		{
			"bufferView": 18,
			"byteOffset": 0,
			"componentType": 5126,
			"count": 1605,
			"max": [
				-0.09031496942043304,
				-0.015490710735321045,
				0.2059149295091629
			],
			"min": [
				-0.23543812334537506,
				-0.07948385179042816,
				0.1520603895187378
			],
			"type": "VEC3"
		},
		{
			"bufferView": 17,
			"byteOffset": 0,
			"componentType": 5126,
			"count": 1605,
			"max": [
				1.0,
				0.7660443782806396,
				0.7660443782806396
			],
			"min": [
				-1.0,
				-0.7660443782806396,
				-0.642787754535675
			],
			"type": "VEC3"
		}
	],
	"asset": {
		"copyright": "© 2017, Khronos Group, glTF logo. Models CC0, created by Polyhaven.com. Textures CC0, created by Eric Chadwick.",
		"generator": "Created by RapidCompact v6.9.1 | www.rapidcompact.com",
		"version": "2.0"
	},
	"bufferViews": [
		{
			"buffer": 0,
			"byteLength": 133656,
			"byteOffset": 0,
			"target": 34963
		},
		{
			"buffer": 0,
			"byteLength": 142656,
			"byteOffset": 133656,
			"byteStride": 8,
			"target": 34962
		},
		{
			"buffer": 0,
			"byteLength": 235200,
			"byteOffset": 276312,
			"target": 34963
		},
		{
			"buffer": 0,
			"byteLength": 231344,
			"byteOffset": 511512,
			"byteStride": 8,
			"target": 34962
		},
		{
			"buffer": 0,
			"byteLength": 5732,
			"byteOffset": 742856,
			"target": 34963
		},
		{
			"buffer": 0,
			"byteLength": 133656,
			"byteOffset": 748588,
			"target": 34963
		},
		{
			"buffer": 0,
			"byteLength": 235200,
			"byteOffset": 882244,
			"target": 34963
		},
		{
			"buffer": 0,
			"byteLength": 231344,
			"byteOffset": 1117444,
			"byteStride": 8,
			"target": 34962
		},
		{
			"buffer": 0,
			"byteLength": 5732,
			"byteOffset": 1348788,
			"target": 34963
		},
		{
			"buffer": 0,
			"byteLength": 134880,
			"byteOffset": 1354520
		},
		{
			"buffer": 0,
			"byteLength": 134880,
			"byteOffset": 1489400
		},
		{
			"buffer": 0,
			"byteLength": 347016,
			"byteOffset": 1624280
		},
		{
			"buffer": 0,
			"byteLength": 347016,
			"byteOffset": 1971296
		},
		{
			"buffer": 0,
			"byteLength": 347016,
			"byteOffset": 2318312
		},
		{
			"buffer": 0,
			"byteLength": 347016,
			"byteOffset": 2665328
		},
		{
			"buffer": 0,
			"byteLength": 213984,
			"byteOffset": 3012344
		},
		{
			"buffer": 0,
			"byteLength": 213984,
			"byteOffset": 3226328
		},
		{
			"buffer": 0,
			"byteLength": 19260,
			"byteOffset": 3440312
		},
		{
			"buffer": 0,
			"byteLength": 19260,
			"byteOffset": 3459572
		},
		{
			"buffer": 0,
			"byteLength": 19260,
			"byteOffset": 3478832
		},
		{
			"buffer": 0,
			"byteLength": 19260,
			"byteOffset": 3498092
		}
	],
	"buffers": [
		{
			"byteLength": 3517352,
			"uri": "CompareAmbientOcclusion_data.bin"
		}
	],
	"images": [
		{
			"uri": "FruitBaseColor.jpg"
		},
		{
			"uri": "FruitORM.jpg"
		},
		{
			"uri": "BasketORM.jpg"
		}
	],
	"materials": [
		{
			"name": "Basket with Occlusion",
			"occlusionTexture": {
				"index": 2
			},
			"pbrMetallicRoughness": {
				"metallicFactor": 0
			}
		},
		{
			"name": "Fruit with Occlusion",
			"occlusionTexture": {
				"index": 1
			},
			"pbrMetallicRoughness": {
				"baseColorTexture": {
					"index": 0
				},
				"metallicRoughnessTexture": {
					"index": 1
				}
			}
		},
		{
			"name": "Logo",
			"pbrMetallicRoughness": {
				"metallicFactor": 0
			}
		},
		{
			"name": "Basket without Occlusion",
			"pbrMetallicRoughness": {
				"metallicFactor": 0
			}
		},
		{
			"name": "Fruit without Occlusion",
			"pbrMetallicRoughness": {
				"baseColorTexture": {
					"index": 0
				},
				"metallicRoughnessTexture": {
					"index": 1
				}
			}
		}
	],
	"meshes": [
		{
			"name": "BasketRight",
			"primitives": [
				{
					"attributes": {
						"NORMAL": 3,
						"POSITION": 1,
						"TEXCOORD_0": 2
					},
					"indices": 0,
					"material": 0,
					"mode": 4
				}
			]
		},
		{
			"name": "FruitRight",
			"primitives": [
				{
					"attributes": {
						"NORMAL": 7,
						"POSITION": 5,
						"TEXCOORD_0": 6
					},
					"indices": 4,
					"material": 1,
					"mode": 4
				}
			]
		},
		{
			"name": "LogoRight",
			"primitives": [
				{
					"attributes": {
						"NORMAL": 10,
						"POSITION": 9
					},
					"indices": 8,
					"material": 2,
					"mode": 4
				}
			]
		},
		{
			"name": "BasketLeft",
			"primitives": [
				{
					"attributes": {
						"NORMAL": 13,
						"POSITION": 12
					},
					"indices": 11,
					"material": 3,
					"mode": 4
				}
			]
		},
		{
			"name": "FruitLeft",
			"primitives": [
				{
					"attributes": {
						"NORMAL": 17,
						"POSITION": 15,
						"TEXCOORD_0": 16
					},
					"indices": 14,
					"material": 4,
					"mode": 4
				}
			]
		},
		{
			"name": "LogoLeft",
			"primitives": [
				{
					"attributes": {
						"NORMAL": 20,
						"POSITION": 19
					},
					"indices": 18,
					"material": 2,
					"mode": 4
				}
			]
		}
	],
	"nodes": [
		{
			"mesh": 0,
			"name": "BasketRight"
		},
		{
			"mesh": 1,
			"name": "FruitRight"
		},
		{
			"mesh": 2,
			"name": "LogoRight"
		},
		{
			"mesh": 3,
			"name": "BasketLeft"
		},
		{
			"mesh": 4,
			"name": "FruitLeft"
		},
		{
			"mesh": 5,
			"name": "LogoLeft"
		}
	],
	"samplers": [
		{
			"wrapS": 33071,
			"wrapT": 33071
		}
	],
	"scene": 0,
	"scenes": [
		{
			"nodes": [
				0,
				1,
				2,
				3,
				4,
				5
			]
		}
	],
	"textures": [
		{
			"sampler": 0,
			"source": 0
		},
		{
			"sampler": 0,
			"source": 1
		},
		{
			"sampler": 0,
			"source": 2
		}
	]
}